<svg width="65" height="64" viewBox="0 0 65 64" fill="none" xmlns="http://www.w3.org/2000/svg">
<g clip-path="url(#clip0_51_166)">
<path d="M32.5 0C40.9869 0 49.1263 3.37142 55.1274 9.37258C61.1286 15.3737 64.5 23.5131 64.5 32C64.5 40.4869 61.1286 48.6263 55.1274 54.6274C49.1263 60.6286 40.9869 64 32.5 64C24.0131 64 15.8737 60.6286 9.87258 54.6274C3.87142 48.6263 0.5 40.4869 0.5 32C0.5 23.5131 3.87142 15.3737 9.87258 9.37258C15.8737 3.37142 24.0131 0 32.5 0V0ZM18.5 30C17.9696 30 17.4609 30.2107 17.0858 30.5858C16.7107 30.9609 16.5 31.4696 16.5 32C16.5 32.5304 16.7107 33.0391 17.0858 33.4142C17.4609 33.7893 17.9696 34 18.5 34H41.672L33.084 42.584C32.898 42.77 32.7505 42.9907 32.6499 43.2337C32.5493 43.4766 32.4975 43.737 32.4975 44C32.4975 44.263 32.5493 44.5234 32.6499 44.7663C32.7505 45.0093 32.898 45.23 33.084 45.416C33.27 45.602 33.4907 45.7495 33.7337 45.8501C33.9766 45.9507 34.237 46.0025 34.5 46.0025C34.763 46.0025 35.0234 45.9507 35.2663 45.8501C35.5093 45.7495 35.73 45.602 35.916 45.416L47.916 33.416C48.1023 33.2302 48.25 33.0095 48.3508 32.7665C48.4517 32.5236 48.5036 32.2631 48.5036 32C48.5036 31.7369 48.4517 31.4764 48.3508 31.2335C48.25 30.9905 48.1023 30.7698 47.916 30.584L35.916 18.584C35.73 18.398 35.5093 18.2505 35.2663 18.1499C35.0234 18.0493 34.763 17.9975 34.5 17.9975C34.237 17.9975 33.9766 18.0493 33.7337 18.1499C33.4907 18.2505 33.27 18.398 33.084 18.584C32.898 18.77 32.7505 18.9907 32.6499 19.2337C32.5493 19.4766 32.4975 19.737 32.4975 20C32.4975 20.263 32.5493 20.5234 32.6499 20.7663C32.7505 21.0093 32.898 21.23 33.084 21.416L41.672 30H18.5Z" fill="#FF5045"/>
</g>
<defs>
<clipPath id="clip0_51_166">
<rect width="64" height="64" fill="white" transform="translate(0.5)"/>
</clipPath>
</defs>
</svg>
