<svg width="65" height="64" viewBox="0 0 65 64" fill="none" xmlns="http://www.w3.org/2000/svg">
<g clip-path="url(#clip0_51_168)">
<path d="M32.5 0C24.0131 0 15.8737 3.37142 9.87258 9.37258C3.87142 15.3737 0.5 23.5131 0.5 32C0.5 40.4869 3.87142 48.6263 9.87258 54.6274C15.8737 60.6286 24.0131 64 32.5 64C40.9869 64 49.1263 60.6286 55.1274 54.6274C61.1286 48.6263 64.5 40.4869 64.5 32C64.5 23.5131 61.1286 15.3737 55.1274 9.37258C49.1263 3.37142 40.9869 0 32.5 0V0ZM46.5 30C47.0304 30 47.5391 30.2107 47.9142 30.5858C48.2893 30.9609 48.5 31.4696 48.5 32C48.5 32.5304 48.2893 33.0391 47.9142 33.4142C47.5391 33.7893 47.0304 34 46.5 34H23.328L31.916 42.584C32.102 42.77 32.2495 42.9907 32.3501 43.2337C32.4507 43.4766 32.5025 43.737 32.5025 44C32.5025 44.263 32.4507 44.5234 32.3501 44.7663C32.2495 45.0093 32.102 45.23 31.916 45.416C31.73 45.602 31.5093 45.7495 31.2663 45.8501C31.0234 45.9507 30.763 46.0025 30.5 46.0025C30.237 46.0025 29.9766 45.9507 29.7337 45.8501C29.4907 45.7495 29.27 45.602 29.084 45.416L17.084 33.416C16.8977 33.2302 16.75 33.0095 16.6491 32.7665C16.5483 32.5236 16.4964 32.2631 16.4964 32C16.4964 31.7369 16.5483 31.4764 16.6491 31.2335C16.75 30.9905 16.8977 30.7698 17.084 30.584L29.084 18.584C29.4595 18.2085 29.9689 17.9975 30.5 17.9975C31.0311 17.9975 31.5405 18.2085 31.916 18.584C32.2915 18.9595 32.5025 19.4689 32.5025 20C32.5025 20.5311 32.2915 21.0405 31.916 21.416L23.328 30H46.5Z" fill="#FF5045"/>
</g>
<defs>
<clipPath id="clip0_51_168">
<rect width="64" height="64" fill="white" transform="translate(0.5)"/>
</clipPath>
</defs>
</svg>
