<svg width="50" height="50" viewBox="0 0 50 50" fill="none" xmlns="http://www.w3.org/2000/svg">
<path d="M6.70627 8.91877C6.561 8.7735 6.44576 8.60103 6.36714 8.41122C6.28851 8.22141 6.24805 8.01797 6.24805 7.81252C6.24805 7.60707 6.28851 7.40363 6.36714 7.21382C6.44576 7.02401 6.561 6.85155 6.70627 6.70627C6.85155 6.561 7.02401 6.44576 7.21382 6.36714C7.40363 6.28851 7.60707 6.24805 7.81252 6.24805C8.01797 6.24805 8.22141 6.28851 8.41122 6.36714C8.60103 6.44576 8.7735 6.561 8.91877 6.70627L25 22.7906L41.0813 6.70627C41.2265 6.561 41.399 6.44576 41.5888 6.36714C41.7786 6.28851 41.9821 6.24805 42.1875 6.24805C42.393 6.24805 42.5964 6.28851 42.7862 6.36714C42.976 6.44576 43.1485 6.561 43.2938 6.70627C43.439 6.85155 43.5543 7.02401 43.6329 7.21382C43.7115 7.40363 43.752 7.60707 43.752 7.81252C43.752 8.01797 43.7115 8.22141 43.6329 8.41122C43.5543 8.60103 43.439 8.7735 43.2938 8.91877L27.2094 25L43.2938 41.0813C43.439 41.2265 43.5543 41.399 43.6329 41.5888C43.7115 41.7786 43.752 41.9821 43.752 42.1875C43.752 42.393 43.7115 42.5964 43.6329 42.7862C43.5543 42.976 43.439 43.1485 43.2938 43.2938C43.1485 43.439 42.976 43.5543 42.7862 43.6329C42.5964 43.7115 42.393 43.752 42.1875 43.752C41.9821 43.752 41.7786 43.7115 41.5888 43.6329C41.399 43.5543 41.2265 43.439 41.0813 43.2938L25 27.2094L8.91877 43.2938C8.7735 43.439 8.60103 43.5543 8.41122 43.6329C8.22141 43.7115 8.01797 43.752 7.81252 43.752C7.60707 43.752 7.40363 43.7115 7.21382 43.6329C7.02401 43.5543 6.85155 43.439 6.70627 43.2938C6.561 43.1485 6.44576 42.976 6.36714 42.7862C6.28851 42.5964 6.24805 42.393 6.24805 42.1875C6.24805 41.9821 6.28851 41.7786 6.36714 41.5888C6.44576 41.399 6.561 41.2265 6.70627 41.0813L22.7906 25L6.70627 8.91877Z" fill="#FFFAF6"/>
</svg>
