<svg width="41" height="40" viewBox="0 0 41 40" fill="none" xmlns="http://www.w3.org/2000/svg">
<path fill-rule="evenodd" clip-rule="evenodd" d="M20.5 40C31.5457 40 40.5 31.0457 40.5 20C40.5 8.9543 31.5457 0 20.5 0C9.4543 0 0.5 8.9543 0.5 20C0.5 31.0457 9.4543 40 20.5 40ZM17.202 20C17.202 18.1841 18.6839 16.7022 20.4998 16.7022C22.3156 16.7022 23.7976 18.1841 23.7976 20C23.7976 21.8159 22.3156 23.2978 20.4998 23.2978C18.6839 23.2978 17.202 21.8159 17.202 20ZM30.391 19.5004C30.3908 19.6668 30.3906 19.8333 30.3906 20C30.3906 20.1864 30.3909 20.3726 30.3912 20.5586C30.3929 21.7352 30.3947 22.9049 30.3263 24.082C30.2496 25.6654 29.8909 27.0681 28.7306 28.2284C27.5728 29.3862 26.1676 29.7474 24.5843 29.8241C23.3875 29.8914 22.1983 29.8901 21.0018 29.8888C20.8354 29.8886 20.6689 29.8884 20.5022 29.8884C20.3359 29.8884 20.1697 29.8886 20.0036 29.8888C18.8086 29.8901 17.6192 29.8914 16.4202 29.8241C14.8369 29.7474 13.4341 29.3887 12.2739 28.2284C11.116 27.0706 10.7548 25.6654 10.6781 24.082C10.6108 22.8852 10.6121 21.6941 10.6135 20.4987C10.6136 20.3325 10.6138 20.1663 10.6138 20C10.6138 19.8336 10.6136 19.6674 10.6135 19.5014C10.6121 18.3064 10.6108 17.1169 10.6781 15.918C10.7548 14.3346 11.1136 12.9319 12.2739 11.7716C13.4317 10.6138 14.8369 10.2526 16.4202 10.1759C17.617 10.1086 18.8061 10.1099 20.0027 10.1112C20.169 10.1114 20.3355 10.1116 20.5022 10.1116C20.6686 10.1116 20.8348 10.1114 21.0009 10.1112C22.1959 10.1099 23.3853 10.1086 24.5843 10.1759C26.1676 10.2526 27.5703 10.6113 28.7306 11.7716C29.8884 12.9294 30.2496 14.3346 30.3263 15.918C30.3937 17.1147 30.3923 18.3039 30.391 19.5004ZM15.4257 20C15.4257 22.8079 17.6918 25.0741 20.4998 25.0741C23.3077 25.0741 25.5739 22.8079 25.5739 20C25.5739 17.1921 23.3077 14.9259 20.4998 14.9259C17.6918 14.9259 15.4257 17.1921 15.4257 20ZM24.5966 14.7181C24.5966 15.3737 25.1261 15.9031 25.7817 15.9031C25.9373 15.9033 26.0915 15.8728 26.2354 15.8133C26.3792 15.7538 26.51 15.6665 26.62 15.5565C26.7301 15.4464 26.8174 15.3157 26.8769 15.1718C26.9364 15.028 26.9669 14.8738 26.9667 14.7181C26.9667 14.0625 26.4373 13.5331 25.7817 13.5331C25.1261 13.5331 24.5966 14.0625 24.5966 14.7181Z" fill="#FFFAF7"/>
</svg>
