<svg width="41" height="40" viewBox="0 0 41 40" fill="none" xmlns="http://www.w3.org/2000/svg">
<path fill-rule="evenodd" clip-rule="evenodd" d="M20.5 40C31.5457 40 40.5 31.0457 40.5 20C40.5 8.9543 31.5457 0 20.5 0C9.4543 0 0.5 8.9543 0.5 20C0.5 31.0457 9.4543 40 20.5 40ZM29.5599 14.2254C30.4743 14.1159 31.3441 13.8734 32.1538 13.5147L32.1519 13.5176C31.5457 14.4241 30.7829 15.2155 29.8993 15.8545C29.908 16.0485 29.9128 16.2444 29.9128 16.4383C29.9128 22.4077 25.3698 29.2907 17.0595 29.2907C14.6046 29.2934 12.2008 28.5888 10.1359 27.2611C10.4938 27.3032 10.8538 27.3242 11.2142 27.3241C13.2485 27.3271 15.2247 26.6457 16.8248 25.3896C15.8822 25.3723 14.9686 25.0607 14.2119 24.4983C13.4551 23.936 12.8932 23.1511 12.6047 22.2536C13.2819 22.3826 13.9795 22.3561 14.645 22.176C13.6225 21.9694 12.703 21.4154 12.0425 20.608C11.382 19.8006 11.0211 18.7896 11.0212 17.7464V17.6882C11.6485 18.0369 12.35 18.2307 13.0673 18.2536C12.4488 17.8405 11.9418 17.2812 11.5913 16.6252C11.2408 15.9692 11.0576 15.2368 11.0581 14.4931C11.0581 13.6669 11.2811 12.8911 11.669 12.2221C12.8034 13.6176 14.2185 14.759 15.8226 15.5723C17.4267 16.3855 19.1838 16.8524 20.98 16.9425C20.7526 15.9736 20.8515 14.9566 21.2614 14.0496C21.6712 13.1426 22.369 12.3963 23.2464 11.9265C24.1238 11.4568 25.1318 11.2898 26.1139 11.4516C27.0959 11.6134 27.9971 12.0949 28.6774 12.8213C29.6892 12.6227 30.6594 12.2521 31.5458 11.7256C31.2093 12.7723 30.5034 13.6609 29.5599 14.2254Z" fill="#FFFAF7"/>
</svg>
